<svg width="32" height="31" viewBox="0 0 32 31" fill="none" xmlns="http://www.w3.org/2000/svg">
<path d="M16 0C7.18937 0 0 6.96592 0 15.5C0 24.0353 7.19063 31 16 31C24.8106 31 32 24.0341 32 15.5C32 6.96471 24.8094 0 16 0ZM16 29.1836C8.21144 29.1836 1.875 23.0452 1.875 15.5C1.875 7.95483 8.21144 1.81641 16 1.81641C23.7886 1.81641 30.125 7.95483 30.125 15.5C30.125 23.0452 23.7886 29.1836 16 29.1836Z" fill="#111F4D"/>
<path d="M12.5 2C5.6167 2 0 7.61768 0 14.5C0 21.3833 5.61768 27 12.5 27C19.3833 27 25 21.3823 25 14.5C25 7.6167 19.3823 2 12.5 2ZM12.5 25.5352C6.41519 25.5352 1.46484 20.5848 1.46484 14.5C1.46484 8.41519 6.41519 3.46484 12.5 3.46484C18.5848 3.46484 23.5352 8.41519 23.5352 14.5C23.5352 20.5848 18.5848 25.5352 12.5 25.5352Z" fill="#111F4D"/>
<circle cx="10.5" cy="15.5" r="5.5" fill="#E43A19"/>
</svg>
